<svg width="484" height="397" viewBox="0 0 484 397" fill="none" xmlns="http://www.w3.org/2000/svg">
<rect width="484" height="397" fill="#E5E5E5"/>
<ellipse cx="241.5" cy="219.5" rx="192.5" ry="177.5" fill="#B61575"/>
<path d="M62 0L123.488 81H0.512196L62 0Z" fill="#B61575"/>
<path d="M62.5 29L94.976 67.25H30.024L62.5 29Z" fill="#C4C4C4"/>
<path d="M422 0L483.488 81H360.512L422 0Z" fill="#B61575"/>
<path d="M421.5 29L453.976 67.25H389.024L421.5 29Z" fill="#C4C4C4"/>
<circle cx="164" cy="139" r="31" fill="#C4C4C4"/>
<circle cx="320" cy="139" r="31" fill="#C4C4C4"/>
<ellipse cx="242" cy="240.5" rx="69" ry="44.5" fill="#C4C4C4"/>
<ellipse cx="242" cy="323" rx="56" ry="12" fill="#C4C4C4"/>
<circle cx="164.5" cy="139.5" r="12.5" fill="black"/>
<circle cx="319.5" cy="139.5" r="12.5" fill="black"/>
<ellipse cx="213" cy="240" rx="9" ry="22" fill="#050505"/>
<ellipse cx="274" cy="240" rx="9" ry="22" fill="#050505"/>
</svg>
